<?xml version="1.0" encoding="UTF-8" standalone="no"?>
<svg
   viewBox="0 0 84.478776 72.107601"
   version="1.1"
   id="svg_null"
   width="158.39771"
   height="135.20175"
   sodipodi:docname="logo.svg"
   inkscape:version="1.3 (0e150ed, 2023-07-21)"
   xmlns:inkscape="http://www.inkscape.org/namespaces/inkscape"
   xmlns:sodipodi="http://sodipodi.sourceforge.net/DTD/sodipodi-0.dtd"
   xmlns="http://www.w3.org/2000/svg"
   xmlns:svg="http://www.w3.org/2000/svg">
  <defs
     id="defs2" />
  <sodipodi:namedview
     id="namedview2"
     pagecolor="#ffffff"
     bordercolor="#000000"
     borderopacity="0.25"
     inkscape:showpageshadow="2"
     inkscape:pageopacity="0.0"
     inkscape:pagecheckerboard="0"
     inkscape:deskcolor="#d1d1d1"
     inkscape:zoom="0.78666667"
     inkscape:cx="147.45763"
     inkscape:cy="147.45763"
     inkscape:window-width="1344"
     inkscape:window-height="449"
     inkscape:window-x="0"
     inkscape:window-y="25"
     inkscape:window-maximized="0"
     inkscape:current-layer="svg_null" />
  <g
     id="root"
     stroke="none"
     stroke-width="1"
     fill="none"
     fill-rule="evenodd"
     transform="matrix(2.1120221,0,0,2.1120221,-126.72238,-139.09355)">
    <path
       d="m 94.142,65.858 c 7.81,7.81 7.81,20.474 0,28.284 -7.81,7.81 -20.474,7.81 -28.284,0 -7.81,-7.81 -7.81,-20.474 0,-28.284 l 1.414,1.414 c -7.03,7.03 -7.03,18.426 0,25.456 7.03,7.03 18.426,7.03 25.456,0 7.03,-7.03 7.03,-18.426 0,-25.456 z"
       id="shape.primary"
       fill="#cc7f2a"
       fill-rule="nonzero" />
    <path
       d="m 5,5 v 9 c 0,3.515625 2.617188,6.417969 6,6.90625 V 25 H 7 v 2 H 17 V 25 H 13 V 20.90625 C 16.382813,20.417969 19,17.515625 19,14 V 5 Z m 16,0 v 7 h 1 c 0.550781,0 1,-0.449219 1,-1 V 5 Z m 4,0 v 7 c 0,1.667969 -1.332031,3 -3,3 h -1 v 12 h 2 V 16.78125 C 25.257813,16.300781 27,14.394531 27,12 V 5 Z M 7,7 h 10 v 7 c 0,2.773438 -2.226562,5 -5,5 -2.773437,0 -5,-2.226562 -5,-5 z"
       fill="#cc7f2a"
       id="path2"
       transform="matrix(0.75,0,0,0.75,68,68)" />
  </g>
</svg>
